<svg xmlns="http://www.w3.org/2000/svg" viewBox="0 0 135.1 24.6"><style></style><g id="bg"><path d="M22.1 17.5c1 .6 1.6 1.1 2.1 1.4.7.6 1.1 1.1 1.1 1.6s-.3 1.2-.9 2.1c-.6.9-1.3 1.4-1.9 1.4-.4 0-1-.3-1.8-.8-.1-.1-.4-.3-.9-.6s-.9-.6-1.1-.7c-1.9 1.5-4.1 2.2-6.5 2.2C9 24.1 6.3 23 4 20.7c-2.2-2.3-3.3-5-3.3-8.2 0-1.7.3-3.3.9-4.9.6-1.5 1.5-2.8 2.5-3.8S6.3 2 7.7 1.4C9.1.8 10.4.5 11.9.5c3.1 0 5.7 1.1 8 3.3 2.3 2.2 3.4 5 3.4 8.5 0 1.8-.4 3.5-1.2 5.2zM6.2 12.3c0 1.9.6 3.4 1.8 4.5 1.2 1.2 2.5 1.7 4 1.7s2.8-.6 4-1.7c1.2-1.1 1.8-2.6 1.8-4.5s-.6-3.4-1.8-4.5c-1.2-1.1-2.5-1.7-4-1.7s-2.8.5-4 1.7c-1.2 1.1-1.8 2.6-1.8 4.5zM40.7 1.7c.2-.3.5-.6.9-.7.4-.1.9-.2 1.5-.2s1.1.1 1.4.2c.4.1.6.2.8.4.2.1.3.4.4.7.1.4.2.9.2 1.6V13c0 2.7-.9 5.2-2.6 7.5-.8 1.1-1.9 1.9-3.2 2.6-1.3.7-2.8 1-4.4 1-1.6 0-3-.3-4.3-1s-2.4-1.5-3.2-2.6c-1.7-2.2-2.5-4.7-2.5-7.5V3.6 2.5c0-.2.1-.5.3-.8.3-.4.6-.6 1-.7.4-.1.9-.2 1.6-.2.7 0 1.2.1 1.6.2.4.1.7.3.8.7.3.5.4 1.1.4 2V13c0 1.3.3 2.5.9 3.6.3.6.8 1.1 1.4 1.4.6.4 1.4.5 2.2.5 1.5 0 2.7-.6 3.4-1.7.7-1.1 1.1-2.4 1.1-3.9V3.4c0-.8.1-1.4.3-1.7zM48.4 3.6V2.5c0-.2.1-.5.3-.8.3-.6 1.1-.8 2.4-.8 1.5 0 2.3.4 2.6 1.2.2.2.3.8.3 1.5V22c0 .2-.1.5-.3.8-.3.6-1.1.8-2.4.8-1.5 0-2.3-.4-2.6-1.2-.1-.3-.2-.9-.2-1.6V3.6zM71.8 18.4c.8 0 1.4.1 1.8.3.4.2.6.5.7.9.1.4.2.9.2 1.4 0 .6-.1 1.1-.2 1.4-.1.4-.2.6-.4.8-.1.2-.4.3-.7.4-.3.1-.9.2-1.6.2h-13c-.5 0-.9-.1-1.4-.4-.8-.5-1.2-1.4-1.2-2.5 0-.5.1-1 .4-1.3L66 6.2h-8.3c-.2 0-.5-.1-.9-.3-.5-.3-.8-1.1-.8-2.3 0-1.3.3-2.1.8-2.4.3-.2.6-.3.8-.3h13.6c.5 0 .9.1 1.4.4s.8.6 1 1c.3.3.4.8.4 1.3 0 .6-.1 1-.4 1.3L64 18.4h7.8zM91.8 18.4c.8 0 1.4.1 1.8.3.4.2.6.5.7.9.1.4.2.9.2 1.4 0 .6-.1 1.1-.2 1.4-.1.4-.2.6-.4.8-.1.2-.4.3-.7.4-.3.1-.9.2-1.6.2h-13c-.5 0-.9-.1-1.4-.4-.7-.5-1.2-1.4-1.2-2.5 0-.5.1-1 .4-1.3l9.7-13.4h-8.3c-.2 0-.5-.1-.9-.3-.6-.3-.9-1.1-.9-2.3 0-1.3.3-2.1.8-2.4.3-.2.6-.3.8-.3h13.6c.5 0 .9.1 1.4.4.4.2.8.6 1 1 .2.4.4.9.4 1.5s-.1 1-.4 1.3l-9.7 13.4h7.9zM102.1 18.2h10.7c.2 0 .5.1.8.3.6.3.8 1.1.8 2.4 0 1.5-.4 2.3-1.2 2.6-.4.1-.9.2-1.6.2H99.3c-1.5 0-2.3-.4-2.6-1.2-.1-.3-.2-.9-.2-1.6V3.6c0-1.1.2-1.8.6-2.2.4-.4 1.1-.6 2.2-.6h13.4c.2 0 .5.1.8.3.6.3.8 1.1.8 2.4 0 1.5-.4 2.3-1.2 2.6-.4.1-.9.2-1.6.2h-9.6v3.2H109.2c.2 0 .5.1.8.3.6.3.8 1.1.8 2.4 0 1.5-.4 2.3-1.2 2.6-.4.1-.9.2-1.6.2h-6.1v3.2zM134 19.8c.3.7.5 1.3.5 1.6 0 .8-.6 1.5-1.9 2-.7.3-1.2.4-1.6.4-.4 0-.7-.1-1-.3-.3-.2-.5-.4-.6-.6-.2-.4-1-2.3-2.4-5.6l-1 .1h-4V22c0 .2-.1.5-.3.8-.3.6-1.1.8-2.4.8-1.5 0-2.3-.4-2.6-1.2-.1-.4-.2-.9-.2-1.6V3.6 2.5c0-.2.1-.5.3-.8.3-.6 1.1-.8 2.4-.8h6.7c1.8 0 3.6.7 5.3 2 .8.6 1.5 1.5 2.1 2.6.5 1.1.8 2.3.8 3.7 0 2.4-.8 4.3-2.3 5.8.5 1 1.2 2.7 2.2 4.8zm-12-7.9h4c.6 0 1.2-.2 1.8-.7.6-.5.9-1.1.9-2.1s-.3-1.6-.9-2.1c-.6-.5-1.2-.7-1.9-.7H122v5.6z"/></g></svg>